{"title":"Mars.Needs.Moms.2011.TS.XViD-T0XiCiNK","uid":6274072,"size":1472867233,"categoryP":"video","categoryS":"movies","magnet":"?xt=urn:btih:372e6a9d2017555aaf0969c681fe29352584ba51&amp;dn=Mars.Needs.Moms.2011.TS.XViD-T0XiCiNK&amp;tr=udp%3A%2F%2Ftracker.openbittorrent.com%3A80&amp;tr=udp%3A%2F%2Fopen.demonii.com%3A1337&amp;tr=udp%3A%2F%2Ftracker.coppersurfer.tk%3A6969&amp;tr=udp%3A%2F%2Fexodus.desync.com%3A6969","seeders":0,"leechers":0,"uploader":"TvTeam","files":6,"time":1301185341,"description":". \n  &lt;a href=&quot;\nhttp://www.torrenting.com/&quot; rel=&quot;nofollow&quot; target=&quot;_NEW&quot;&gt;\nhttp://www.torrenting.com/&lt;/a&gt;        :     Greatest Movie Tracker on The Net!!!\n &lt;a href=&quot;\nhttp://www.Torrenting.com&quot; rel=&quot;nofollow&quot; target=&quot;_NEW&quot;&gt;\nhttp://www.Torrenting.com&lt;/a&gt;          :     Once &amp; For all ;)\n\n\n               www . Torrenting . Com \n\n(((((((((((((= Enjoy No RAR releases =))))))))))))))))))))\n\n\n...................................NFO:....................................\n\n.[img]http://noob.hu/2011/03/26/o-three-new-mars-needs-moms-posters.jpg[/img]\n\n::::::::::::::Enjoy:Another:Release:From:T0XiCiNK::::::::::::::\n\nFile:: Mars.Needs.Moms.2011.TS.XViD-T0XiCiNK\n\nVideo Source:: Own\nAudio Source:: IMAGiNE thx\nLanguage::English\nIMDB:: http://www.imdb.com/title/tt1305591/\n\nA young boy named Milo gains a deeper appreciation for his \nmom after Martians come to Earth to take her away.\n\nSpecs::\n\nGeneral\n\nFormat                           : AVI\nFormat/Info                      : Audio Video Interleave\nFile size                        : 1.36 GiB\nDuration                         : 1h 20mn\nOverall bit rate                 : 2 400 Kbps\nWriting application              : VirtualDubMod 1.5.10.2 (build 2540/release)\nWriting library                  : VirtualDubMod build 2540/release\n\nVideo\nID                               : 0\nFormat                           : MPEG-4 Visual\nFormat profile                   : Advanced Simple@L5\nFormat settings, BVOP            : Yes\nFormat settings, QPel            : No\nFormat settings, GMC             : No warppoints\nFormat settings, Matrix          : Default (MPEG)\nCodec ID                         : XVID\nCodec ID/Hint                    : XviD\nDuration                         : 1h 20mn\nBit rate                         : 2 132 Kbps\nWidth                            : 720 pixels\nHeight                           : 336 pixels\nDisplay aspect ratio             : 2.2:1\nFrame rate                       : 29.970 fps\nColor space                      : YUV\nChroma subsampling               : 4:2:0\nBit depth                        : 8 bits\nScan type                        : Progressive\nBits/(Pixel*Frame)               : 0.294\nStream size                      : 1.20 GiB (89%)\nWriting library                  : XviD 1.2.0.dev47 (UTC 2006-11-01)\n\nAudio\nID                               : 1\nFormat                           : MPEG Audio\nFormat version                   : Version 1\nFormat profile                   : Layer 3\nCodec ID                         : 55\nCodec ID/Hint                    : MP3\nDuration                         : 1h 20mn\nBit rate mode                    : Constant\nBit rate                         : 256 Kbps\nChannel(s)                       : 2 channels\nSampling rate                    : 44.1 KHz\nStream size                      : 148 MiB (11%)\nAlignment                        : Split accross interleaves\nInterleave, duration             : 33 ms (1.00 video frame)\nInterleave, preload duration     : 500 ms\n\n\nNOTES:: Presenting a better quality Mars Needs Moms. Special thanks to IMAGiNE for the audio and \nHEHE for the hook up. Also, the CAM takes a sec to steady out, we didn't wan't to crop anymore then \nwe had to.\nEnjoy.\n\n\n::Why Complain? Whats Free Is Free::\n\n::We are always looking for friends with unreleased DVD's, Screeners, R5's, Audio, Cams, Silvers,\n...and any other good sources you may have to offer - \n..contact us: &lt;a class=&quot;__cf_email__&quot; href=&quot;/cdn-cgi/l/email-protection&quot; data-cfemail=&quot;3a4e0a425359485f565f5b495f497a524f4952575b535614595557&quot;&gt;[email&amp;#160;protected]&lt;/a&gt;&lt;script cf-hash='f9e31' type=&quot;text/javascript&quot;&gt;\n/* &lt;![CDATA[ */!function(){try{var t=&quot;currentScript&quot;in document?document.currentScript:function(){for(var t=document.getElementsByTagName(&quot;script&quot;),e=t.length;e--;)if(t[e].getAttribute(&quot;cf-hash&quot;))return t[e]}();if(t&amp;&amp;t.previousSibling){var e,r,n,i,c=t.previousSibling,a=c.getAttribute(&quot;data-cfemail&quot;);if(a){for(e=&quot;&quot;,r=parseInt(a.substr(0,2),16),n=2;a.length-n;n+=2)i=parseInt(a.substr(n,2),16)^r,e+=String.fromCharCode(i);e=document.createTextNode(e),c.parentNode.replaceChild(e,c)}}}catch(u){}}();/* ]]&gt; */&lt;/script&gt; or &lt;a class=&quot;__cf_email__&quot; href=&quot;/cdn-cgi/l/email-protection&quot; data-cfemail=&quot;9ffbf6f8f6ebfef3b1f6f1f4dff3f6e9fab1fcf0f2&quot;&gt;[email&amp;#160;protected]&lt;/a&gt;&lt;script cf-hash='f9e31' type=&quot;text/javascript&quot;&gt;\n/* &lt;![CDATA[ */!function(){try{var t=&quot;currentScript&quot;in document?document.currentScript:function(){for(var t=document.getElementsByTagName(&quot;script&quot;),e=t.length;e--;)if(t[e].getAttribute(&quot;cf-hash&quot;))return t[e]}();if(t&amp;&amp;t.previousSibling){var e,r,n,i,c=t.previousSibling,a=c.getAttribute(&quot;data-cfemail&quot;);if(a){for(e=&quot;&quot;,r=parseInt(a.substr(0,2),16),n=2;a.length-n;n+=2)i=parseInt(a.substr(n,2),16)^r,e+=String.fromCharCode(i);e=document.createTextNode(e),c.parentNode.replaceChild(e,c)}}}catch(u){}}();/* ]]&gt; */&lt;/script&gt;\n\n::::::::::::::::::::::::::::::::::::   Respect To   :::::::::::::::::::::::::::::::::::::\n::FLAWL3SS,Rx,HEHE,Hive-CM8,Tranz,Vik,OneTwo,Joey,bob,Unevano,SANTi &amp; our friends on utn and PA::\n                       &quot;and to all of you who support us, Thank-You&quot;\n\n\n[img]http://noob.hu/2011/03/26/vlcsnap-2011-03-26-15h14m05s147.png[/img]\n[img]http://noob.hu/2011/03/26/vlcsnap-2011-03-26-15h15m16s99.png[/img]\n[img]http://noob.hu/2011/03/26/vlcsnap-2011-03-26-15h15m54s9.png[/img]\n[img]http://noob.hu/2011/03/26/vlcsnap-2011-03-26-15h11m21s48.png[/img]\n[img]http://noob.hu/2011/03/26/vlcsnap-2011-03-26-15h14m35s206.png[/img]","torrent":{"xt":"urn:btih:372e6a9d2017555aaf0969c681fe29352584ba51","amp;dn":"Mars.Needs.Moms.2011.TS.XViD-T0XiCiNK","amp;tr":["udp%3A%2F%2Ftracker.openbittorrent.com%3A80","udp%3A%2F%2Fopen.demonii.com%3A1337","udp%3A%2F%2Ftracker.coppersurfer.tk%3A6969","udp%3A%2F%2Fexodus.desync.com%3A6969"],"infoHash":"372e6a9d2017555aaf0969c681fe29352584ba51","infoHashBuffer":{"type":"Buffer","data":[55,46,106,157,32,23,85,90,175,9,105,198,129,254,41,53,37,132,186,81]},"announce":[],"urlList":[]}}